<?xml version="1.0" encoding="UTF-8" standalone="no"?>
<svg
   xmlns:dc="http://purl.org/dc/elements/1.1/"
   xmlns:cc="http://creativecommons.org/ns#"
   xmlns:rdf="http://www.w3.org/1999/02/22-rdf-syntax-ns#"
   xmlns:svg="http://www.w3.org/2000/svg"
   xmlns="http://www.w3.org/2000/svg"
   xmlns:sodipodi="http://sodipodi.sourceforge.net/DTD/sodipodi-0.dtd"
   xmlns:inkscape="http://www.inkscape.org/namespaces/inkscape"
   sodipodi:docname="ologo.svg"
   inkscape:version="1.0 (4035a4fb49, 2020-05-01)"
   id="svg8"
   version="1.1"
   viewBox="0 0 105.31888 105.31779"
   height="105.31779mm"
   width="105.31888mm">
  <defs
     id="defs2" />
  <sodipodi:namedview
     inkscape:window-maximized="1"
     inkscape:window-y="0"
     inkscape:window-x="0"
     inkscape:window-height="1200"
     inkscape:window-width="1920"
     fit-margin-bottom="0"
     fit-margin-right="0"
     fit-margin-left="0"
     fit-margin-top="0"
     showgrid="false"
     inkscape:document-rotation="0"
     inkscape:current-layer="layer1"
     inkscape:document-units="mm"
     inkscape:cy="232.30228"
     inkscape:cx="184.54617"
     inkscape:zoom="0.98994949"
     inkscape:pageshadow="2"
     inkscape:pageopacity="0.0"
     borderopacity="1.0"
     bordercolor="#666666"
     pagecolor="#ffffff"
     id="base" />
  <metadata
     id="metadata5">
    <rdf:RDF>
      <cc:Work
         rdf:about="">
        <dc:format>image/svg+xml</dc:format>
        <dc:type
           rdf:resource="http://purl.org/dc/dcmitype/StillImage" />
        <dc:title></dc:title>
      </cc:Work>
    </rdf:RDF>
  </metadata>
  <g
     transform="translate(-12.723945,-30.730385)"
     id="layer1"
     inkscape:groupmode="layer"
     inkscape:label="Layer 1">
    <g
       inkscape:export-ydpi="11.576392"
       inkscape:export-xdpi="11.576392"
       id="g1022">
      <g
         id="g1008"
         transform="rotate(-47.630665,65.38386,83.389171)">
        <path
           d="M 90.511195,88.268628 A 34.640636,31.616105 84.741747 0 0 55.856599,56.70557 a 34.640636,31.616105 84.741747 0 0 -17.523481,7.937668 40.494987,35.489948 84.741747 0 1 9.097359,-2.247754 40.494987,35.489948 84.741747 0 1 39.051611,37.071801 40.494987,35.489948 84.741747 0 1 -0.133714,9.700545 34.640636,31.616105 84.741747 0 0 4.165994,-20.864725 34.640636,31.616105 84.741747 0 0 -0.0032,-0.03448 z"
           style="fill:#97e898;fill-opacity:1;stroke:#63c371;stroke-width:0.799999;stroke-opacity:1"
           id="path979" />
        <path
           id="path988"
           style="fill:#97e898;fill-opacity:1;stroke:#63c371;stroke-width:0.799999;stroke-opacity:1"
           d="m 70.122193,58.47056 a 31.616105,34.640636 84.741747 0 0 -31.563058,34.654596 31.616105,34.640636 84.741747 0 0 7.937668,17.523484 35.489948,40.494987 84.741747 0 1 -2.247754,-9.09736 35.489948,40.494987 84.741747 0 1 37.071801,-39.051613 35.489948,40.494987 84.741747 0 1 9.70055,0.133714 31.616105,34.640636 84.741747 0 0 -20.86473,-4.165994 31.616105,34.640636 84.741747 0 0 -0.03448,0.0032 z" />
        <path
           d="m 40.324125,78.859562 a 34.640636,31.616105 84.741747 0 0 34.654595,31.563058 34.640636,31.616105 84.741747 0 0 17.523482,-7.93767 40.494987,35.489948 84.741747 0 1 -9.097359,2.24775 40.494987,35.489948 84.741747 0 1 -39.051611,-37.071795 40.494987,35.489948 84.741747 0 1 0.133714,-9.70055 34.640636,31.616105 84.741747 0 0 -4.165994,20.86473 34.640636,31.616105 84.741747 0 0 0.0032,0.03448 z"
           style="fill:#97e898;fill-opacity:1;stroke:#63c371;stroke-width:0.799999;stroke-opacity:1"
           id="path990" />
        <path
           id="path992"
           style="fill:#97e898;fill-opacity:1;stroke:#63c371;stroke-width:0.799999;stroke-opacity:1"
           d="m 60.713128,108.65763 a 31.616105,34.640636 84.741747 0 0 31.563055,-34.654597 31.616105,34.640636 84.741747 0 0 -7.937665,-17.523482 35.489948,40.494987 84.741747 0 1 2.247752,9.097359 35.489948,40.494987 84.741747 0 1 -37.071799,39.05161 35.489948,40.494987 84.741747 0 1 -9.70055,-0.13371 31.616105,34.640636 84.741747 0 0 20.864729,4.16599 31.616105,34.640636 84.741747 0 0 0.03445,-0.003 z" />
        <path
           d="M 65.020136,31.904264 A 51.485523,51.485523 0 0 0 13.898031,83.389335 51.485523,51.485523 0 0 0 65.384624,134.8744 51.485523,51.485523 0 0 0 116.86969,83.389335 51.485523,51.485523 0 0 0 65.384624,31.904264 a 51.485523,51.485523 0 0 0 -0.364488,0 z m 0.359913,19.79092 a 31.693945,31.693945 0 0 1 0.0046,0 A 31.693945,31.693945 0 0 1 97.078775,83.389335 31.693945,31.693945 0 0 1 65.384624,115.08348 31.693945,31.693945 0 0 1 33.690481,83.389335 31.693945,31.693945 0 0 1 65.380049,51.695184 Z"
           style="fill:#97e898;fill-opacity:1;stroke:#63c371;stroke-width:2.36096;stroke-opacity:1"
           id="path994" />
      </g>
      <text
         xml:space="preserve"
         style="font-size:4.23333px;line-height:1.25;font-family:'Go Mono';-inkscape-font-specification:'Go Mono, Normal';letter-spacing:0px;word-spacing:0px;stroke-width:0.264583"
         x="56.845051"
         y="91.464592"
         id="text1012"><tspan
           sodipodi:role="line"
           id="tspan1010"
           x="56.845051"
           y="91.464592"
           style="font-style:normal;font-variant:normal;font-weight:bold;font-stretch:normal;font-size:22.5778px;font-family:'Droid Sans';-inkscape-font-specification:'Droid Sans, Bold';font-variant-ligatures:normal;font-variant-caps:normal;font-variant-numeric:normal;font-variant-east-asian:normal;stroke-width:0.264583">O</tspan></text>
    </g>
  </g>
</svg>
